<svg xmlns="http://www.w3.org/2000/svg" xmlns:xlink="http://www.w3.org/1999/xlink" width="500" zoomAndPan="magnify"
     viewBox="110 70 150 150" version="1.0">
    <defs>
        <g/>
        <clipPath id="7c3397bc33">
            <path d="M 136 82 L 234 82 L 234 209 L 136 209 Z M 136 82 " clip-rule="nonzero"/>
        </clipPath>
        <clipPath id="d470e09ec2">
            <path d="M 129.222656 93.226562 L 225.648438 78.800781 L 243.960938 201.1875 L 147.535156 215.613281 Z M 129.222656 93.226562 "
                  clip-rule="nonzero"/>
        </clipPath>
        <clipPath id="5db27891b7">
            <path d="M 129.222656 93.226562 L 225.648438 78.800781 L 243.960938 201.1875 L 147.535156 215.613281 Z M 129.222656 93.226562 "
                  clip-rule="nonzero"/>
        </clipPath>
        <clipPath id="1ca300b3fc">
            <path d="M 163 129 L 208 129 L 208 193 L 163 193 Z M 163 129 " clip-rule="nonzero"/>
        </clipPath>
        <clipPath id="464ff1578a">
            <path d="M 129.222656 93.226562 L 225.648438 78.800781 L 243.960938 201.1875 L 147.535156 215.613281 Z M 129.222656 93.226562 "
                  clip-rule="nonzero"/>
        </clipPath>
        <clipPath id="0f0dc0af5a">
            <path d="M 129.222656 93.226562 L 225.648438 78.800781 L 243.960938 201.1875 L 147.535156 215.613281 Z M 129.222656 93.226562 "
                  clip-rule="nonzero"/>
        </clipPath>
        <clipPath id="be4d1d4ab3">
            <path d="M 100.175781 202.539062 L 277 202.539062 L 277 251.289062 L 100.175781 251.289062 Z M 100.175781 202.539062 "
                  clip-rule="nonzero"/>
        </clipPath>
        <clipPath id="ead96ba233">
            <path d="M 124.496094 202.539062 L 252.476562 202.539062 C 265.910156 202.539062 276.800781 213.429688 276.800781 226.859375 C 276.800781 240.292969 265.910156 251.183594 252.476562 251.183594 L 124.496094 251.183594 C 111.0625 251.183594 100.175781 240.292969 100.175781 226.859375 C 100.175781 213.429688 111.0625 202.539062 124.496094 202.539062 Z M 124.496094 202.539062 "
                  clip-rule="nonzero"/>
        </clipPath>
        <clipPath id="989e79c1ad">
            <path d="M 108.65625 210.621094 L 192.765625 210.621094 L 192.765625 243.097656 L 108.65625 243.097656 Z M 108.65625 210.621094 "
                  clip-rule="nonzero"/>
        </clipPath>
        <clipPath id="a40820421c">
            <path d="M 124.894531 210.621094 L 176.433594 210.621094 C 185.402344 210.621094 192.671875 217.890625 192.671875 226.859375 C 192.671875 235.828125 185.402344 243.097656 176.433594 243.097656 L 124.894531 243.097656 C 115.925781 243.097656 108.65625 235.828125 108.65625 226.859375 C 108.65625 217.890625 115.925781 210.621094 124.894531 210.621094 Z M 124.894531 210.621094 "
                  clip-rule="nonzero"/>
        </clipPath>
    </defs>
    <g clip-path="url(#7c3397bc33)">
        <g clip-path="url(#d470e09ec2)">
            <g clip-path="url(#5db27891b7)">
                <path fill="#283389"
                      d="M 225.574219 112.265625 C 222.96875 103.9375 218.359375 93.820312 213.253906 88.050781 C 210.960938 85.460938 208.472656 83.632812 205.84375 82.992188 C 202.753906 82.234375 199.777344 83.023438 197.078125 85.902344 C 194.53125 88.613281 192.238281 93.460938 190.410156 101.125 L 169.246094 104.292969 C 165.253906 97.5 161.640625 93.535156 158.414062 91.6875 C 154.992188 89.726562 151.914062 89.84375 149.179688 91.46875 C 146.855469 92.851562 145.007812 95.328125 143.574219 98.480469 C 140.359375 105.542969 138.914062 116.683594 138.882812 125.441406 C 136.660156 130.847656 135.816406 136.894531 136.738281 143.066406 L 137.234375 146.386719 C 139.285156 160.089844 149.484375 170.664062 162.160156 173.917969 C 162.128906 176.554688 162.28125 179.105469 162.625 181.546875 C 163.648438 188.886719 166.355469 195.183594 170.542969 199.851562 C 174.839844 204.648438 180.625 207.691406 187.679688 208.363281 C 190.160156 208.601562 192.8125 208.539062 195.625 208.144531 L 195.675781 208.136719 C 198.484375 207.691406 201.035156 206.972656 203.335938 206.023438 C 209.886719 203.308594 214.527344 198.710938 217.234375 192.867188 C 219.871094 187.179688 220.617188 180.363281 219.449219 173.046875 C 219.058594 170.613281 218.460938 168.128906 217.65625 165.617188 C 221.394531 163.335938 224.628906 160.351562 227.199219 156.878906 C 232.3125 149.972656 234.796875 141.117188 233.433594 131.996094 L 232.9375 128.679688 C 232 122.417969 229.367188 116.816406 225.574219 112.265625 Z M 201.949219 90.46875 C 202.785156 89.582031 203.5625 89.304688 204.273438 89.480469 C 205.453125 89.765625 206.816406 90.863281 208.25 92.488281 C 210.757812 95.320312 213.160156 99.464844 215.203125 103.902344 C 213.863281 103.207031 212.472656 102.597656 211.042969 102.078125 C 211.042969 102.078125 211.046875 102.078125 211.046875 102.078125 C 207.417969 94.9375 203.546875 91.78125 201.019531 100.125 C 199.871094 100.078125 198.714844 100.09375 197.546875 100.171875 C 198.902344 95.222656 200.390625 92.125 201.949219 90.46875 Z M 149.660156 101.25 C 150.554688 99.277344 151.539062 97.832031 152.582031 97.210938 C 153.214844 96.835938 154.039062 96.871094 155.09375 97.476562 C 157.066406 98.609375 159.402344 101.132812 162.148438 105.46875 C 161.230469 105.6875 160.328125 105.945312 159.445312 106.234375 C 154.714844 99.265625 151.964844 103.140625 150.570312 110.722656 C 149.0625 111.796875 147.648438 112.988281 146.34375 114.285156 C 146.996094 109.414062 148.085938 104.714844 149.660156 101.25 Z M 211.171875 190.0625 C 209.171875 194.382812 205.707031 197.796875 200.796875 199.828125 C 198.9375 200.597656 196.894531 201.171875 194.664062 201.53125 C 192.421875 201.84375 190.300781 201.890625 188.300781 201.699219 C 183.007812 201.191406 178.695312 198.941406 175.519531 195.398438 C 172.226562 191.730469 170.078125 186.640625 169.242188 180.609375 C 168.988281 178.800781 168.855469 176.898438 168.847656 174.921875 C 170.988281 175.023438 173.171875 174.917969 175.371094 174.589844 L 187.769531 172.734375 L 188.625 178.445312 C 187.296875 179.089844 186.164062 180.042969 185.308594 181.199219 C 183.9375 183.054688 183.273438 185.433594 183.640625 187.894531 C 184.007812 190.355469 185.339844 192.4375 187.195312 193.808594 C 189.050781 195.179688 191.429688 195.847656 193.890625 195.480469 C 196.351562 195.109375 198.433594 193.78125 199.804688 191.921875 C 201.179688 190.066406 201.84375 187.6875 201.476562 185.226562 C 201.109375 182.765625 199.773438 180.683594 197.917969 179.3125 C 196.761719 178.457031 195.402344 177.875 193.945312 177.648438 L 193.089844 171.9375 L 205.222656 170.125 C 207.421875 169.796875 209.535156 169.257812 211.558594 168.53125 C 212.128906 170.421875 212.558594 172.277344 212.847656 174.082031 C 213.808594 180.097656 213.246094 185.589844 211.171875 190.0625 Z M 191.621094 180.300781 C 193.351562 180.042969 195.019531 180.507812 196.324219 181.472656 C 197.628906 182.441406 198.5625 183.902344 198.820312 185.628906 C 199.078125 187.359375 198.613281 189.027344 197.652344 190.332031 C 196.6875 191.636719 195.226562 192.574219 193.496094 192.832031 C 191.765625 193.089844 190.097656 192.625 188.792969 191.660156 C 187.488281 190.695312 186.554688 189.230469 186.296875 187.503906 C 186.039062 185.773438 186.503906 184.105469 187.464844 182.800781 C 188.429688 181.496094 189.890625 180.558594 191.621094 180.300781 Z M 226.800781 132.984375 C 227.890625 140.277344 225.894531 147.359375 221.804688 152.890625 C 217.714844 158.421875 211.527344 162.402344 204.230469 163.492188 L 174.378906 167.960938 C 159.78125 170.144531 146.054688 159.988281 143.871094 145.394531 L 143.375 142.074219 C 142.28125 134.78125 144.277344 127.699219 148.367188 122.167969 C 152.460938 116.640625 158.648438 112.660156 165.941406 111.566406 L 195.792969 107.101562 C 210.390625 104.917969 224.117188 115.074219 226.300781 129.667969 Z M 215.214844 131.78125 L 215.578125 134.207031 C 216.375 139.535156 214.917969 144.710938 211.929688 148.753906 C 208.9375 152.796875 204.414062 155.707031 199.085938 156.503906 L 177.261719 159.769531 C 166.589844 161.367188 156.554688 153.941406 154.960938 143.273438 L 154.597656 140.847656 C 153.796875 135.515625 155.253906 130.339844 158.246094 126.300781 C 161.238281 122.253906 165.761719 119.347656 171.09375 118.550781 L 192.917969 115.285156 C 203.582031 113.691406 213.621094 121.113281 215.214844 131.78125 Z M 215.214844 131.78125 "
                      fill-opacity="1" fill-rule="evenodd"/>
            </g>
        </g>
    </g>
    <g clip-path="url(#1ca300b3fc)">
        <g clip-path="url(#464ff1578a)">
            <g clip-path="url(#0f0dc0af5a)">
                <path fill="#1ae5be"
                      d="M 196.324219 181.472656 C 197.625 182.4375 198.5625 183.898438 198.820312 185.625 C 199.078125 187.355469 198.613281 189.027344 197.648438 190.332031 C 196.683594 191.636719 195.222656 192.570312 193.496094 192.828125 C 191.765625 193.085938 190.097656 192.621094 188.792969 191.65625 C 187.488281 190.695312 186.554688 189.230469 186.296875 187.5 C 186.035156 185.773438 186.503906 184.101562 187.464844 182.796875 C 188.429688 181.492188 189.890625 180.558594 191.621094 180.296875 C 193.351562 180.042969 195.023438 180.507812 196.324219 181.472656 Z M 173.59375 133.613281 C 172.417969 133.222656 171.203125 133.148438 170.03125 133.347656 C 168.867188 133.546875 167.753906 134.023438 166.777344 134.734375 C 164.589844 136.335938 163.085938 139.125 163.296875 142.667969 C 163.316406 143.019531 163.472656 143.320312 163.75 143.542969 C 164.027344 143.761719 164.351562 143.84375 164.703125 143.785156 L 164.960938 143.742188 C 165.570312 143.640625 166 143.101562 165.964844 142.488281 C 165.828125 139.945312 166.855469 137.988281 168.351562 136.894531 C 168.996094 136.425781 169.722656 136.113281 170.476562 135.980469 C 171.222656 135.851562 172.003906 135.902344 172.753906 136.152344 C 174.585938 136.761719 176.273438 138.582031 177.085938 141.957031 C 177.234375 142.574219 177.832031 142.972656 178.457031 142.867188 L 178.710938 142.824219 C 179.054688 142.769531 179.324219 142.59375 179.519531 142.300781 C 179.710938 142.011719 179.765625 141.691406 179.6875 141.351562 C 178.628906 136.9375 176.230469 134.492188 173.59375 133.613281 Z M 202.109375 129.453125 C 200.964844 129.058594 199.761719 128.929688 198.589844 129.078125 C 197.414062 129.226562 196.269531 129.65625 195.265625 130.375 C 192.996094 131.984375 191.417969 135.023438 191.699219 139.558594 C 191.722656 139.910156 191.871094 140.195312 192.140625 140.417969 C 192.410156 140.640625 192.722656 140.730469 193.066406 140.683594 L 193.320312 140.648438 C 193.949219 140.566406 194.40625 140.011719 194.367188 139.378906 C 194.15625 135.914062 195.238281 133.675781 196.808594 132.558594 C 197.453125 132.097656 198.183594 131.824219 198.9375 131.730469 C 199.695312 131.632812 200.484375 131.71875 201.234375 131.980469 C 202.988281 132.589844 204.542969 134.160156 205.152344 136.628906 C 205.300781 137.230469 205.867188 137.617188 206.480469 137.535156 L 206.742188 137.503906 C 207.09375 137.457031 207.378906 137.285156 207.578125 136.988281 C 207.78125 136.695312 207.84375 136.363281 207.757812 136.019531 C 206.921875 132.5625 204.667969 130.339844 202.109375 129.453125 Z M 202.109375 129.453125 "
                      fill-opacity="1" fill-rule="nonzero"/>
            </g>
        </g>
    </g>



</svg>