<svg xmlns="http://www.w3.org/2000/svg" xmlns:xlink="http://www.w3.org/1999/xlink" width="500" zoomAndPan="magnify" viewBox="0 0 375 374.999991" height="500" preserveAspectRatio="xMidYMid meet" version="1.0"><defs><g/><clipPath id="eba43406e4"><path d="M 89 44 L 263 44 L 263 269 L 89 269 Z M 89 44 " clip-rule="nonzero"/></clipPath><clipPath id="138edcdcaa"><path d="M 76.441406 63.1875 L 247.785156 37.554688 L 280.304688 254.882812 L 108.960938 280.519531 Z M 76.441406 63.1875 " clip-rule="nonzero"/></clipPath><clipPath id="2bf4a9b28f"><path d="M 76.441406 63.1875 L 247.785156 37.554688 L 280.304688 254.882812 L 108.960938 280.519531 Z M 76.441406 63.1875 " clip-rule="nonzero"/></clipPath><clipPath id="01aad45f09"><path d="M 137 126 L 217 126 L 217 241 L 137 241 Z M 137 126 " clip-rule="nonzero"/></clipPath><clipPath id="eae0af959c"><path d="M 76.441406 63.1875 L 247.785156 37.554688 L 280.304688 254.882812 L 108.960938 280.519531 Z M 76.441406 63.1875 " clip-rule="nonzero"/></clipPath><clipPath id="3ad8527bbd"><path d="M 76.441406 63.1875 L 247.785156 37.554688 L 280.304688 254.882812 L 108.960938 280.519531 Z M 76.441406 63.1875 " clip-rule="nonzero"/></clipPath><clipPath id="2a4d2fe086"><path d="M 37.523438 264.105469 L 337.5 264.105469 L 337.5 337.605469 L 37.523438 337.605469 Z M 37.523438 264.105469 " clip-rule="nonzero"/></clipPath><clipPath id="6ec7344b4c"><path d="M 74.214844 264.105469 L 300.785156 264.105469 C 310.515625 264.105469 319.851562 267.972656 326.730469 274.851562 C 333.613281 281.734375 337.476562 291.066406 337.476562 300.796875 C 337.476562 310.527344 333.613281 319.859375 326.730469 326.742188 C 319.851562 333.625 310.515625 337.488281 300.785156 337.488281 L 74.214844 337.488281 C 64.484375 337.488281 55.148438 333.625 48.269531 326.742188 C 41.386719 319.859375 37.523438 310.527344 37.523438 300.796875 C 37.523438 291.066406 41.386719 281.734375 48.269531 274.851562 C 55.148438 267.972656 64.484375 264.105469 74.214844 264.105469 Z M 74.214844 264.105469 " clip-rule="nonzero"/></clipPath><clipPath id="b81a283aa4"><path d="M 46.015625 273.265625 L 157.238281 273.265625 L 157.238281 328.339844 L 46.015625 328.339844 Z M 46.015625 273.265625 " clip-rule="nonzero"/></clipPath><clipPath id="f49a75f9c3"><path d="M 73.554688 273.265625 L 129.492188 273.265625 C 136.796875 273.265625 143.800781 276.167969 148.964844 281.332031 C 154.128906 286.496094 157.027344 293.5 157.027344 300.804688 C 157.027344 308.105469 154.128906 315.109375 148.964844 320.273438 C 143.800781 325.4375 136.796875 328.339844 129.492188 328.339844 L 73.554688 328.339844 C 66.25 328.339844 59.246094 325.4375 54.082031 320.273438 C 48.917969 315.109375 46.015625 308.105469 46.015625 300.804688 C 46.015625 293.5 48.917969 286.496094 54.082031 281.332031 C 59.246094 276.167969 66.25 273.265625 73.554688 273.265625 Z M 73.554688 273.265625 " clip-rule="nonzero"/></clipPath></defs><g clip-path="url(#eba43406e4)"><g clip-path="url(#138edcdcaa)"><g clip-path="url(#2bf4a9b28f)"><path fill="#283389" d="M 247.871094 97.0625 C 243.230469 82.25 235.03125 64.246094 225.949219 53.984375 C 221.871094 49.371094 217.4375 46.121094 212.765625 44.980469 C 207.269531 43.636719 201.964844 45.039062 197.164062 50.15625 C 192.636719 54.976562 188.558594 63.609375 185.304688 77.246094 L 147.648438 82.878906 C 140.542969 70.792969 134.117188 63.738281 128.375 60.449219 C 122.285156 56.960938 116.8125 57.167969 111.941406 60.066406 C 107.8125 62.523438 104.523438 66.925781 101.972656 72.535156 C 96.253906 85.105469 93.683594 104.925781 93.621094 120.503906 C 89.667969 130.125 88.167969 140.886719 89.8125 151.867188 L 90.695312 157.769531 C 94.34375 182.152344 112.484375 200.96875 135.042969 206.757812 C 134.980469 211.449219 135.257812 215.984375 135.867188 220.332031 C 137.6875 233.386719 142.503906 244.589844 149.953125 252.902344 C 157.601562 261.433594 167.894531 266.84375 180.449219 268.042969 C 184.859375 268.464844 189.574219 268.351562 194.582031 267.65625 L 194.671875 267.640625 C 199.667969 266.84375 204.207031 265.570312 208.304688 263.875 C 219.957031 259.046875 228.214844 250.867188 233.03125 240.472656 C 237.71875 230.347656 239.050781 218.226562 236.96875 205.203125 C 236.277344 200.875 235.214844 196.457031 233.78125 191.988281 C 240.433594 187.929688 246.1875 182.617188 250.757812 176.445312 C 259.855469 164.152344 264.28125 148.398438 261.851562 132.167969 L 260.96875 126.265625 C 259.300781 115.128906 254.617188 105.160156 247.871094 97.0625 Z M 205.832031 58.285156 C 207.316406 56.707031 208.703125 56.210938 209.96875 56.523438 C 212.070312 57.035156 214.492188 58.988281 217.046875 61.871094 C 221.503906 66.917969 225.777344 74.289062 229.414062 82.1875 C 227.027344 80.945312 224.554688 79.859375 222.015625 78.9375 C 222.015625 78.9375 222.019531 78.9375 222.019531 78.9375 C 215.566406 66.234375 208.675781 60.621094 204.183594 75.460938 C 202.136719 75.382812 200.078125 75.410156 197.996094 75.546875 C 200.410156 66.742188 203.0625 61.230469 205.832031 58.285156 Z M 112.800781 77.464844 C 114.394531 73.957031 116.140625 71.386719 118 70.277344 C 119.121094 69.609375 120.59375 69.675781 122.46875 70.753906 C 125.976562 72.761719 130.132812 77.257812 135.019531 84.972656 C 133.390625 85.363281 131.78125 85.816406 130.210938 86.332031 C 121.792969 73.933594 116.902344 80.832031 114.417969 94.320312 C 111.734375 96.226562 109.21875 98.351562 106.902344 100.65625 C 108.0625 91.988281 109.996094 83.625 112.800781 77.464844 Z M 222.246094 235.480469 C 218.6875 243.164062 212.523438 249.242188 203.78125 252.859375 C 200.476562 254.222656 196.839844 255.25 192.871094 255.890625 C 188.882812 256.4375 185.105469 256.527344 181.546875 256.183594 C 172.132812 255.285156 164.457031 251.277344 158.808594 244.972656 C 152.953125 238.449219 149.132812 229.394531 147.636719 218.660156 C 147.1875 215.441406 146.953125 212.058594 146.9375 208.542969 C 150.75 208.726562 154.636719 208.539062 158.542969 207.953125 L 180.601562 204.652344 L 182.125 214.8125 C 179.765625 215.957031 177.75 217.65625 176.226562 219.710938 C 173.785156 223.011719 172.601562 227.246094 173.257812 231.625 C 173.914062 236.003906 176.28125 239.707031 179.585938 242.144531 C 182.886719 244.585938 187.121094 245.773438 191.5 245.117188 C 195.878906 244.460938 199.578125 242.09375 202.019531 238.789062 C 204.460938 235.488281 205.644531 231.253906 204.992188 226.875 C 204.335938 222.496094 201.964844 218.796875 198.664062 216.355469 C 196.605469 214.832031 194.183594 213.796875 191.59375 213.398438 L 190.074219 203.234375 L 211.65625 200.007812 C 215.570312 199.421875 219.332031 198.464844 222.929688 197.171875 C 223.945312 200.539062 224.707031 203.835938 225.222656 207.046875 C 226.9375 217.75 225.929688 227.523438 222.246094 235.480469 Z M 187.457031 218.113281 C 190.535156 217.652344 193.507812 218.484375 195.828125 220.199219 C 198.144531 221.917969 199.808594 224.515625 200.269531 227.59375 C 200.730469 230.667969 199.898438 233.640625 198.1875 235.960938 C 196.46875 238.285156 193.871094 239.949219 190.792969 240.40625 C 187.71875 240.867188 184.746094 240.039062 182.425781 238.320312 C 180.105469 236.609375 178.445312 234.003906 177.984375 230.925781 C 177.523438 227.851562 178.355469 224.878906 180.066406 222.558594 C 181.78125 220.238281 184.382812 218.574219 187.457031 218.113281 Z M 250.046875 133.929688 C 251.988281 146.902344 248.4375 159.503906 241.164062 169.34375 C 233.882812 179.1875 222.875 186.265625 209.894531 188.207031 L 156.777344 196.15625 C 130.8125 200.039062 106.382812 181.972656 102.5 156.003906 L 101.617188 150.101562 C 99.675781 137.125 103.222656 124.527344 110.5 114.683594 C 117.78125 104.847656 128.789062 97.765625 141.765625 95.824219 L 194.882812 87.875 C 220.851562 83.988281 245.277344 102.058594 249.164062 128.027344 Z M 229.4375 131.785156 L 230.082031 136.101562 C 231.5 145.585938 228.910156 154.792969 223.589844 161.988281 C 218.265625 169.179688 210.21875 174.355469 200.734375 175.773438 L 161.90625 181.582031 C 142.925781 184.421875 125.070312 171.214844 122.230469 152.230469 L 121.582031 147.917969 C 120.164062 138.429688 122.757812 129.222656 128.078125 122.03125 C 133.398438 114.839844 141.445312 109.664062 150.933594 108.246094 L 189.761719 102.433594 C 208.742188 99.601562 226.597656 112.808594 229.4375 131.785156 Z M 229.4375 131.785156 " fill-opacity="1" fill-rule="evenodd"/></g></g></g><g clip-path="url(#01aad45f09)"><g clip-path="url(#eae0af959c)"><g clip-path="url(#3ad8527bbd)"><path fill="#1ae5be" d="M 195.828125 220.195312 C 198.144531 221.914062 199.808594 224.511719 200.265625 227.589844 C 200.726562 230.664062 199.898438 233.636719 198.183594 235.957031 C 196.46875 238.277344 193.871094 239.941406 190.792969 240.402344 C 187.714844 240.863281 184.746094 240.03125 182.421875 238.316406 C 180.101562 236.605469 178.441406 234 177.984375 230.921875 C 177.523438 227.847656 178.351562 224.875 180.066406 222.554688 C 181.777344 220.234375 184.382812 218.566406 187.457031 218.109375 C 190.539062 217.652344 193.511719 218.484375 195.828125 220.195312 Z M 155.378906 135.046875 C 153.292969 134.347656 151.128906 134.214844 149.046875 134.574219 C 146.972656 134.929688 144.992188 135.773438 143.257812 137.042969 C 139.367188 139.890625 136.6875 144.851562 137.0625 151.15625 C 137.097656 151.785156 137.375 152.316406 137.867188 152.710938 C 138.359375 153.101562 138.941406 153.25 139.566406 153.148438 L 140.027344 153.066406 C 141.109375 152.886719 141.875 151.925781 141.8125 150.832031 C 141.566406 146.3125 143.390625 142.832031 146.054688 140.886719 C 147.199219 140.050781 148.496094 139.492188 149.839844 139.261719 C 151.167969 139.03125 152.550781 139.117188 153.890625 139.5625 C 157.144531 140.644531 160.148438 143.886719 161.597656 149.890625 C 161.859375 150.988281 162.921875 151.695312 164.035156 151.507812 L 164.488281 151.4375 C 165.097656 151.335938 165.582031 151.023438 165.925781 150.503906 C 166.265625 149.988281 166.367188 149.417969 166.226562 148.816406 C 164.34375 140.957031 160.074219 136.605469 155.378906 135.046875 Z M 206.113281 127.644531 C 204.082031 126.9375 201.9375 126.710938 199.859375 126.976562 C 197.761719 127.246094 195.730469 128.003906 193.9375 129.28125 C 189.90625 132.148438 187.097656 137.558594 187.601562 145.628906 C 187.636719 146.246094 187.902344 146.761719 188.382812 147.15625 C 188.859375 147.550781 189.417969 147.707031 190.03125 147.625 L 190.480469 147.5625 C 191.601562 147.414062 192.410156 146.429688 192.339844 145.300781 C 191.964844 139.140625 193.890625 135.160156 196.6875 133.167969 C 197.835938 132.351562 199.136719 131.863281 200.472656 131.695312 C 201.824219 131.523438 203.226562 131.675781 204.566406 132.144531 C 207.683594 133.222656 210.453125 136.015625 211.535156 140.414062 C 211.796875 141.480469 212.804688 142.167969 213.894531 142.027344 L 214.359375 141.96875 C 214.988281 141.882812 215.492188 141.578125 215.851562 141.050781 C 216.207031 140.53125 216.320312 139.941406 216.167969 139.328125 C 214.683594 133.179688 210.667969 129.222656 206.113281 127.644531 Z M 206.113281 127.644531 " fill-opacity="1" fill-rule="nonzero"/></g></g></g><g clip-path="url(#2a4d2fe086)"><g clip-path="url(#6ec7344b4c)"><path stroke-linecap="butt" transform="matrix(0.75, 0, 0, 0.75, 37.522623, 264.106096)" fill="none" stroke-linejoin="miter" d="M 48.922964 -0.000836676 L 351.016734 -0.000836676 C 363.990693 -0.000836676 376.438611 5.155414 385.610486 14.327289 C 394.78757 23.504373 399.938612 35.947082 399.938612 48.921042 C 399.938612 61.895001 394.78757 74.33771 385.610486 83.514794 C 376.438611 92.691878 363.990693 97.84292 351.016734 97.84292 L 48.922964 97.84292 C 35.949005 97.84292 23.501088 92.691878 14.329212 83.514794 C 5.152128 74.33771 0.00108601 61.895001 0.00108601 48.921042 C 0.00108601 35.947082 5.152128 23.504373 14.329212 14.327289 C 23.501088 5.155414 35.949005 -0.000836676 48.922964 -0.000836676 Z M 48.922964 -0.000836676 " stroke="#283389" stroke-width="18" stroke-opacity="1" stroke-miterlimit="4"/></g></g><g clip-path="url(#b81a283aa4)"><g clip-path="url(#f49a75f9c3)"><path fill="#283389" d="M 46.015625 273.265625 L 157.023438 273.265625 L 157.023438 328.339844 L 46.015625 328.339844 Z M 46.015625 273.265625 " fill-opacity="1" fill-rule="nonzero"/></g></g><g fill="#1ae5be" fill-opacity="1"><g transform="translate(54.899946, 312.053036)"><g><path d="M 7.8125 0 L 0.332031 -23.269531 L 5.949219 -23.269531 L 8.175781 -16.1875 L 10.636719 -8.542969 L 13.296875 -16.1875 L 15.789062 -23.269531 L 20.808594 -23.269531 L 23.300781 -16.1875 L 25.992188 -8.441406 L 28.488281 -16.1875 L 30.714844 -23.269531 L 36.296875 -23.269531 L 28.785156 0 L 23.601562 0 L 18.316406 -15.058594 L 13.03125 0 Z M 7.8125 0 "/></g></g></g><g fill="#1ae5be" fill-opacity="1"><g transform="translate(94.050651, 312.053036)"><g><path d="M 2.792969 0 L 2.792969 -23.269531 L 18.082031 -23.269531 L 18.082031 -18.8125 L 8.042969 -18.8125 L 8.042969 -13.992188 L 17.183594 -13.992188 L 17.183594 -9.574219 L 8.042969 -9.574219 L 8.042969 -4.488281 L 18.449219 -4.488281 L 18.449219 0 Z M 2.792969 0 "/></g></g></g><g fill="#1ae5be" fill-opacity="1"><g transform="translate(116.717115, 312.053036)"><g><path d="M 2.792969 0 L 2.792969 -23.269531 L 13.195312 -23.269531 C 15.566406 -23.269531 17.449219 -22.703125 18.847656 -21.574219 C 20.242188 -20.441406 20.941406 -18.925781 20.941406 -17.019531 C 20.941406 -15.933594 20.699219 -14.945312 20.210938 -14.058594 C 19.722656 -13.175781 19.035156 -12.476562 18.148438 -11.964844 C 19.257812 -11.480469 20.117188 -10.757812 20.726562 -9.804688 C 21.335938 -8.851562 21.640625 -7.757812 21.640625 -6.515625 C 21.640625 -5.207031 21.308594 -4.066406 20.640625 -3.089844 C 19.976562 -2.117188 19.050781 -1.355469 17.867188 -0.8125 C 16.679688 -0.269531 15.300781 0 13.726562 0 Z M 8.011719 -4.1875 L 12.929688 -4.1875 C 13.972656 -4.1875 14.78125 -4.433594 15.355469 -4.917969 C 15.933594 -5.40625 16.222656 -6.09375 16.222656 -6.980469 C 16.222656 -7.867188 15.933594 -8.554688 15.355469 -9.042969 C 14.78125 -9.527344 13.972656 -9.773438 12.929688 -9.773438 L 8.011719 -9.773438 Z M 8.011719 -13.792969 L 12.398438 -13.792969 C 13.417969 -13.792969 14.199219 -14.027344 14.742188 -14.492188 C 15.285156 -14.957031 15.554688 -15.613281 15.554688 -16.453125 C 15.554688 -17.296875 15.285156 -17.945312 14.742188 -18.398438 C 14.199219 -18.851562 13.417969 -19.078125 12.398438 -19.078125 L 8.011719 -19.078125 Z M 8.011719 -13.792969 "/></g></g></g><g fill="#283389" fill-opacity="1"><g transform="translate(209.188759, 312.969735)"><g><path d="M 2.027344 0 L 2.027344 -19.183594 L 11.375 -19.183594 C 13.382812 -19.183594 14.972656 -18.71875 16.140625 -17.785156 C 17.3125 -16.855469 17.894531 -15.601562 17.894531 -14.03125 C 17.894531 -13.117188 17.695312 -12.292969 17.292969 -11.550781 C 16.890625 -10.8125 16.316406 -10.230469 15.566406 -9.8125 C 16.480469 -9.410156 17.191406 -8.820312 17.703125 -8.042969 C 18.214844 -7.265625 18.472656 -6.367188 18.472656 -5.34375 C 18.472656 -4.300781 18.191406 -3.378906 17.636719 -2.574219 C 17.078125 -1.773438 16.300781 -1.140625 15.304688 -0.683594 C 14.308594 -0.226562 13.164062 0 11.867188 0 Z M 7.453125 -4.109375 L 10.796875 -4.109375 C 11.457031 -4.109375 11.960938 -4.269531 12.320312 -4.589844 C 12.675781 -4.910156 12.851562 -5.351562 12.851562 -5.917969 C 12.851562 -6.484375 12.675781 -6.925781 12.320312 -7.234375 C 11.960938 -7.546875 11.457031 -7.699219 10.796875 -7.699219 L 7.453125 -7.699219 Z M 7.453125 -11.648438 L 10.332031 -11.648438 C 11.664062 -11.648438 12.332031 -12.222656 12.332031 -13.375 C 12.332031 -14.523438 11.664062 -15.101562 10.332031 -15.101562 L 7.453125 -15.101562 Z M 7.453125 -11.648438 "/></g></g></g><g fill="#283389" fill-opacity="1"><g transform="translate(228.44984, 312.969735)"><g><path d="M 7.589844 0.410156 C 5.746094 0.410156 4.28125 -0.167969 3.191406 -1.328125 C 2.105469 -2.488281 1.5625 -4.046875 1.5625 -6 L 1.5625 -14.496094 L 6.824219 -14.496094 L 6.824219 -6.550781 C 6.824219 -5.710938 7.019531 -5.066406 7.414062 -4.617188 C 7.804688 -4.171875 8.339844 -3.945312 9.015625 -3.945312 C 9.730469 -3.945312 10.289062 -4.183594 10.703125 -4.660156 C 11.113281 -5.132812 11.316406 -5.820312 11.316406 -6.714844 L 11.316406 -14.496094 L 16.578125 -14.496094 L 16.578125 0 L 12.824219 0 L 12.277344 -1.480469 C 11.164062 -0.21875 9.601562 0.410156 7.589844 0.410156 Z M 7.589844 0.410156 "/></g></g></g><g fill="#283389" fill-opacity="1"><g transform="translate(246.888971, 312.969735)"><g><path d="M 1.835938 0 L 1.835938 -14.496094 L 7.097656 -14.496094 L 7.097656 0 Z M 1.316406 -19.457031 C 1.316406 -20.371094 1.613281 -21.105469 2.207031 -21.664062 C 2.800781 -22.222656 3.554688 -22.5 4.46875 -22.5 C 5.378906 -22.5 6.132812 -22.222656 6.726562 -21.664062 C 7.320312 -21.105469 7.617188 -20.371094 7.617188 -19.457031 C 7.617188 -18.5625 7.320312 -17.828125 6.726562 -17.25 C 6.132812 -16.675781 5.378906 -16.386719 4.46875 -16.386719 C 3.554688 -16.386719 2.800781 -16.675781 2.207031 -17.25 C 1.613281 -17.828125 1.316406 -18.5625 1.316406 -19.457031 Z M 1.316406 -19.457031 "/></g></g></g><g fill="#283389" fill-opacity="1"><g transform="translate(255.820855, 312.969735)"><g><path d="M 1.835938 -20.28125 L 7.097656 -20.28125 L 7.097656 0 L 1.835938 0 Z M 1.835938 -20.28125 "/></g></g></g><g fill="#283389" fill-opacity="1"><g transform="translate(264.752739, 312.969735)"><g><path d="M 8.25 0.410156 C 6.804688 0.410156 5.527344 0.0859375 4.414062 -0.5625 C 3.296875 -1.210938 2.425781 -2.109375 1.796875 -3.261719 C 1.164062 -4.414062 0.847656 -5.746094 0.847656 -7.261719 C 0.847656 -8.761719 1.164062 -10.085938 1.796875 -11.234375 C 2.425781 -12.386719 3.296875 -13.285156 4.414062 -13.933594 C 5.527344 -14.585938 6.804688 -14.910156 8.25 -14.910156 C 9.800781 -14.910156 11.171875 -14.523438 12.359375 -13.757812 L 12.359375 -20.28125 L 17.621094 -20.28125 L 17.621094 0 L 13.839844 0 L 13.320312 -1.453125 C 12.679688 -0.867188 11.929688 -0.410156 11.070312 -0.0820312 C 10.214844 0.246094 9.273438 0.410156 8.25 0.410156 Z M 6 -7.261719 C 6 -6.292969 6.308594 -5.5 6.917969 -4.878906 C 7.53125 -4.257812 8.320312 -3.945312 9.289062 -3.945312 C 10.257812 -3.945312 11.042969 -4.257812 11.648438 -4.878906 C 12.25 -5.5 12.550781 -6.292969 12.550781 -7.261719 C 12.550781 -8.230469 12.25 -9.019531 11.648438 -9.632812 C 11.042969 -10.246094 10.257812 -10.550781 9.289062 -10.550781 C 8.320312 -10.550781 7.53125 -10.246094 6.917969 -9.632812 C 6.308594 -9.019531 6 -8.230469 6 -7.261719 Z M 6 -7.261719 "/></g></g></g><g fill="#283389" fill-opacity="1"><g transform="translate(284.205611, 312.969735)"><g><path d="M 9.042969 0.410156 C 7.4375 0.410156 6.015625 0.0859375 4.78125 -0.5625 C 3.550781 -1.210938 2.585938 -2.109375 1.890625 -3.261719 C 1.195312 -4.414062 0.847656 -5.746094 0.847656 -7.261719 C 0.847656 -8.777344 1.195312 -10.109375 1.890625 -11.25 C 2.585938 -12.390625 3.554688 -13.285156 4.796875 -13.933594 C 6.039062 -14.585938 7.464844 -14.910156 9.070312 -14.910156 C 10.808594 -14.910156 12.300781 -14.539062 13.550781 -13.796875 C 14.804688 -13.058594 15.753906 -12.015625 16.402344 -10.675781 C 17.050781 -9.332031 17.328125 -7.753906 17.238281 -5.945312 L 6.054688 -5.945312 C 6.257812 -5.160156 6.640625 -4.566406 7.207031 -4.164062 C 7.773438 -3.761719 8.421875 -3.5625 9.152344 -3.5625 C 9.71875 -3.5625 10.242188 -3.664062 10.714844 -3.863281 C 11.191406 -4.066406 11.574219 -4.339844 11.867188 -4.6875 L 16.964844 -4.6875 C 16.324219 -3.078125 15.316406 -1.828125 13.933594 -0.933594 C 12.554688 -0.0351562 10.925781 0.410156 9.042969 0.410156 Z M 6.082031 -8.796875 L 12.222656 -8.796875 C 12.003906 -9.472656 11.632812 -10.003906 11.113281 -10.386719 C 10.59375 -10.769531 9.929688 -10.960938 9.125 -10.960938 C 8.394531 -10.960938 7.761719 -10.773438 7.222656 -10.398438 C 6.683594 -10.027344 6.304688 -9.492188 6.082031 -8.796875 Z M 6.082031 -8.796875 "/></g></g></g><g fill="#283389" fill-opacity="1"><g transform="translate(302.261159, 312.969735)"><g><path d="M 1.835938 0 L 1.835938 -14.496094 L 5.617188 -14.496094 L 6.277344 -12.6875 C 6.734375 -13.328125 7.300781 -13.789062 7.976562 -14.074219 C 8.652344 -14.355469 9.492188 -14.496094 10.496094 -14.496094 L 12.195312 -14.496094 L 12.195312 -9.785156 L 10.523438 -9.785156 C 9.355469 -9.785156 8.492188 -9.496094 7.933594 -8.921875 C 7.375 -8.34375 7.097656 -7.4375 7.097656 -6.195312 L 7.097656 0 Z M 1.835938 0 "/></g></g></g><g fill="#283389" fill-opacity="1"><g transform="translate(169.563055, 312.928045)"><g><path d="M 5.847656 0 C 4.582031 0 3.625 -0.304688 2.96875 -0.914062 C 2.3125 -1.523438 1.984375 -2.40625 1.984375 -3.570312 L 1.984375 -6.578125 L 0.277344 -6.578125 L 0.277344 -9.207031 L 1.113281 -9.207031 C 1.636719 -9.207031 1.992188 -9.292969 2.175781 -9.460938 C 2.363281 -9.628906 2.488281 -9.953125 2.558594 -10.425781 L 2.734375 -11.628906 L 5.328125 -11.628906 L 5.328125 -9.207031 L 7.589844 -9.207031 L 7.589844 -6.578125 L 5.328125 -6.578125 L 5.328125 -4.210938 C 5.328125 -3.285156 5.800781 -2.820312 6.753906 -2.820312 L 7.710938 -2.820312 L 7.710938 0 Z M 5.847656 0 "/></g></g></g><g fill="#283389" fill-opacity="1"><g transform="translate(177.95099, 312.928045)"><g><path d="M 1.167969 0 L 1.167969 -12.882812 L 4.507812 -12.882812 L 4.507812 -8.6875 C 5.171875 -9.207031 5.992188 -9.46875 6.980469 -9.46875 C 8.152344 -9.46875 9.074219 -9.105469 9.75 -8.371094 C 10.421875 -7.640625 10.757812 -6.648438 10.757812 -5.394531 L 10.757812 0 L 7.414062 0 L 7.414062 -5.046875 C 7.414062 -5.59375 7.289062 -6.003906 7.042969 -6.285156 C 6.792969 -6.5625 6.445312 -6.703125 6.003906 -6.703125 C 5.542969 -6.703125 5.175781 -6.550781 4.910156 -6.25 C 4.640625 -5.949219 4.507812 -5.519531 4.507812 -4.960938 L 4.507812 0 Z M 1.167969 0 "/></g></g></g><g fill="#283389" fill-opacity="1"><g transform="translate(189.697572, 312.928045)"><g><path d="M 5.746094 0.261719 C 4.722656 0.261719 3.820312 0.0546875 3.039062 -0.355469 C 2.253906 -0.769531 1.640625 -1.339844 1.199219 -2.070312 C 0.761719 -2.800781 0.539062 -3.648438 0.539062 -4.613281 C 0.539062 -5.578125 0.761719 -6.421875 1.199219 -7.144531 C 1.640625 -7.871094 2.257812 -8.441406 3.046875 -8.851562 C 3.835938 -9.265625 4.742188 -9.46875 5.761719 -9.46875 C 6.863281 -9.46875 7.8125 -9.234375 8.609375 -8.765625 C 9.402344 -8.292969 10.007812 -7.632812 10.417969 -6.78125 C 10.832031 -5.925781 11.007812 -4.925781 10.949219 -3.777344 L 3.847656 -3.777344 C 3.976562 -3.277344 4.21875 -2.902344 4.578125 -2.644531 C 4.9375 -2.390625 5.351562 -2.261719 5.8125 -2.261719 C 6.175781 -2.261719 6.503906 -2.328125 6.804688 -2.453125 C 7.109375 -2.582031 7.351562 -2.757812 7.539062 -2.976562 L 10.773438 -2.976562 C 10.367188 -1.957031 9.726562 -1.160156 8.851562 -0.59375 C 7.976562 -0.0234375 6.941406 0.261719 5.746094 0.261719 Z M 3.863281 -5.585938 L 7.765625 -5.585938 C 7.625 -6.015625 7.390625 -6.355469 7.058594 -6.597656 C 6.726562 -6.839844 6.308594 -6.964844 5.796875 -6.964844 C 5.332031 -6.964844 4.929688 -6.84375 4.585938 -6.605469 C 4.246094 -6.367188 4.003906 -6.027344 3.863281 -5.585938 Z M 3.863281 -5.585938 "/></g></g></g></svg>